# xmcd
#
# Track frame offsets: 
#        150
#        18223
#        34292
#        53490
#        71374
#        89373
#        107211
#        131442
#        154103
#        171876
#        189904
#        209366
#        231179
#
# Disc length: 3357 seconds
#
# Revision: 0
# Processed by: cddbd v1.5.2PL0 Copyright (c) Steve Scherf et al.
# Submitted via: ExactAudioCopyFreeDBPlugin 1.0
#
DISCID=a40d1b0d
DTITLE=阿果 - 浪漫戀曲
DYEAR=1900
DGENRE=Blues
TTITLE0=一定要愛你
TTITLE1=遇見你
TTITLE2=我一直站在被你傷害的地方
TTITLE3=錯過的情人
TTITLE4=藕斷絲連
TTITLE5=不是因為寂寞才想你
TTITLE6=挪威森林
TTITLE7=涼山的月亮
TTITLE8=你的承諾
TTITLE9=放手去愛
TTITLE10=最遠的你是我最近的愛
TTITLE11=謝謝你讓我這麼愛你
TTITLE12=藍月亮
EXTD=
EXTT0=
EXTT1=
EXTT2=
EXTT3=
EXTT4=
EXTT5=
EXTT6=
EXTT7=
EXTT8=
EXTT9=
EXTT10=
EXTT11=
EXTT12=
PLAYORDER=
